<svg xmlns="http://www.w3.org/2000/svg" width="343.334" height="381.978" viewBox="0 0 343.334 381.978">
    <g id="Groupe_10" data-name="Groupe 10" transform="translate(0.98 1.345)">
        <g id="Groupe_3" data-name="Groupe 3" transform="translate(0 212.003)">
            <g id="Groupe_2" data-name="Groupe 2" transform="translate(0 16.005)">
                <path id="Tracé_1" data-name="Tracé 1"
                      d="M8108.812,1404.956s-12.917,14.212-43.258,11.787-53.529-32.59-53.85-59.034,16.357-61.907,57.43-55.708c28.97,4.371,35.92-22.054,7.1-25.6s-99.956,12.659-82.159,94.222c14.59,66.861,79.345,61.847,119.88,46.686S8108.812,1404.956,8108.812,1404.956Z"
                      transform="translate(-7991.25 -1275.957)" fill="#9c785e"/>
                <g id="Groupe_1" data-name="Groupe 1" transform="translate(0.002 15.599)">
                    <path id="Tracé_2" data-name="Tracé 2"
                          d="M8063.628,1297.223c-22.921-3.46-38.236,6.055-47.248,19.732,8.324-16.6,24.541-29.354,50.531-25.433,10.425,1.574,18-.842,22.081-4.744C8087.647,1293.542,8078.568,1299.477,8063.628,1297.223Z"
                          transform="translate(-7985.748 -1286.778)" fill="#7c5b45"/>
                    <path id="Tracé_3" data-name="Tracé 3"
                          d="M8001.662,1298.341c-7.016,13.9-9.609,32.4-4.308,56.7,14.591,66.862,79.345,61.85,119.881,46.688a96.413,96.413,0,0,0,12.206-5.309c3.245,1.612,1.095,4.806-15.487,11.008-40.537,15.161-105.294,20.175-119.884-46.687C7988.007,1332.956,7992.269,1312.76,8001.662,1298.341Z"
                          transform="translate(-7991.251 -1281.672)" fill="#7c5b45"/>
                </g>
                <path id="Tracé_4" data-name="Tracé 4"
                      d="M8108.812,1404.956s-12.917,14.212-43.258,11.787-53.529-32.59-53.85-59.034,16.357-61.907,57.43-55.708c28.97,4.371,35.92-22.054,7.1-25.6s-99.956,12.659-82.159,94.222c14.59,66.861,79.345,61.847,119.88,46.686S8108.812,1404.956,8108.812,1404.956Z"
                      transform="translate(-7991.25 -1275.957)" fill="none" stroke="#000" stroke-miterlimit="10"
                      stroke-width="1.753"/>
            </g>
            <path id="Tracé_5" data-name="Tracé 5"
                  d="M8074.862,1411.439,8061.1,1292.511s-51.134,47.149-57.029,51.084-11.153-8.821-30.653-8.821-22.444,12.754-22.444,41.267,14.751,45.23,14.751,45.23,43.25-4.367,50.142-4.367Z"
                  transform="translate(-7877.327 -1252.642)" fill="#9c785e"/>
            <path id="Tracé_6" data-name="Tracé 6"
                  d="M7963.829,1324.4c-2.292,6.7-2.859,16.18-2.859,28.705,0,28.515,14.748,45.23,14.748,45.23s43.26.983,50.143.983l28.518-52.112s8.847,5.9,13.766-1.968c2.948,2.952,4.916,53.1,4.916,53.1l-53.1,4.482c-6.887,0-50.142,4.368-50.142,4.368s-14.748-16.716-14.748-45.231C7955.068,1342.214,7956.485,1330.032,7963.829,1324.4Z"
                  transform="translate(-7881.423 -1238.558)" fill="#7c5b45"/>
            <path id="Tracé_7" data-name="Tracé 7"
                  d="M7972.12,1341.88c28.041,5.477,11.327,24.159,44.76,24.159,3.886,0,7.865,7.867,7.865,12.782s-17.7,12.782-17.7,12.782-3.875,1.851-3.9-3.5,3.9-8.134-9.862-8.217-18.682,0-18.682,0S7995.209,1344.27,7972.12,1341.88Z"
                  transform="translate(-7857.691 -1230.84)" fill="#7c5b45"/>
            <path id="Tracé_8" data-name="Tracé 8"
                  d="M8066.13,1301.345s-36.379,34.414-42.278,38.348-11.149-8.821-30.649-8.821-22.448,12.753-22.448,41.267,14.75,42.281,14.75,42.281h50.145c6.883,0,12.773-16.633,0-16.633h-21.631s23.9-38.429-7.713-38.429"
                  transform="translate(-7897.11 -1248.74)" fill="none" stroke="#000" stroke-miterlimit="10"
                  stroke-width="2.046"/>
            <path id="Tracé_9" data-name="Tracé 9"
                  d="M7989.676,1277.638v26.486c0,8.911,21.633,41.358,25.567,50.207s-6.883,35.121-12.783,44.6-1.97,19.311-1.97,19.311,16.434-.523,15.592,5.639-1.824,5.178-8.707,5.178-11.682.058-14.2.058-3.5-6.437-3.5-12.1-1.964-45.974-4.914-45.974-9.834.984-12.783.984,0,42.329,0,46.237,3.277,10.85-1.311,10.85H7953.88c-3.534,0-6.3-9.578,0-10.225l6.3-.649s0-12.782-2.951-17.7-23.6-19.665-19.665-37.364S7959.2,1315,7959.2,1305.169v-40.314Z"
                  transform="translate(-7798.533 -1264.855)" fill="#9c785e"/>
            <path id="Tracé_10" data-name="Tracé 10"
                  d="M7955.826,1305.169v-40.314l30.483,12.783v25.75a184,184,0,0,1-30.9,4.961A15.108,15.108,0,0,0,7955.826,1305.169Z"
                  transform="translate(-7795.164 -1264.855)" fill="#7c5b45"/>
            <path id="Tracé_11" data-name="Tracé 11"
                  d="M8001.807,1372.031c-2.948,0,0,42.329,0,46.237s3.277,12.266-1.313,12.266h-16.786c-3.531,0-6.3-10.995,0-11.642l6.3-.649s0-12.782-2.953-17.7-23.592-19.665-19.66-37.364,21.633-48.179,21.633-58.012v-40.314"
                  transform="translate(-7828.363 -1264.855)" fill="none" stroke="#000" stroke-miterlimit="10"
                  stroke-width="2.046"/>
            <path id="Tracé_12" data-name="Tracé 12"
                  d="M7941.985,1273.722v26.487c0,8.911,21.631,41.358,25.564,50.207s-6.88,35.121-12.782,44.6-1.968,19.311-1.968,19.311,16.434-.523,15.592,5.638-1.826,6.654-8.707,6.654h-14.2c-2.516,0-3.5-7.854-3.5-13.514s-1.964-45.974-4.917-45.974"
                  transform="translate(-7750.839 -1260.939)" fill="none" stroke="#000" stroke-miterlimit="10"
                  stroke-width="2.046"/>
        </g>
        <g id="Groupe_9" data-name="Groupe 9" transform="translate(21.802)">
            <path id="Tracé_13" data-name="Tracé 13"
                  d="M8041.8,1213.222s-12.452-36.517-8.3-63.9,13.263-33.664,3.726-30.942-61.276,54.318-45.365,114.835S8041.8,1213.222,8041.8,1213.222Z"
                  transform="translate(-7920.661 -1117.794)" fill="#9c785e"/>
            <path id="Tracé_14" data-name="Tracé 14"
                  d="M8039.076,1120.662c-10.619,15.389-24.921,37.743-25.928,47.836-1.62,16.179-3.082,46.519,4.93,62.088,2.684,5.218-3.143,14.592-12.328,22.193-3.923-2.713-7.557-8.969-10.54-20.308C7979.885,1174.182,8028.944,1124.392,8039.076,1120.662Z"
                  transform="translate(-7922.869 -1116.528)" fill="#ffbaaa"/>
            <path id="Tracé_15" data-name="Tracé 15"
                  d="M7864.046,1194.855s26.352-1.848,66.4-9.128c9.129-1.661,21.579,64.735-37.527,71.663C7852.679,1262.107,7864.046,1194.855,7864.046,1194.855Z"
                  transform="translate(-7635.014 -1087.808)" fill="#9c785e"/>
            <path id="Tracé_16" data-name="Tracé 16"
                  d="M7864.492,1212.556c7.287,3.147,25.752-2.36,31.937-6.293,3.026-1.926,9.15-10.452,14.613-18.653,6.986,11.575,9.331,58.039-36.645,65.01C7876.3,1229.99,7864.492,1212.556,7864.492,1212.556Z"
                  transform="translate(-7614.49 -1086.964)" fill="#ffbaaa"/>
            <ellipse id="Ellipse_1" data-name="Ellipse 1" cx="103.328" cy="76.355" rx="103.328" ry="76.355"
                     transform="translate(58.065 76.34)" fill="#9c785e"/>
            <path id="Tracé_17" data-name="Tracé 17"
                  d="M7978.84,1194.728c27.763,2.566,52.1,13.271,68.509,28.78,11.593-1.29,29.886-3.669,52.58-7.795,8.89-1.618,20.919,61.3-33.053,70.991-8.8,30.081-41.591,53.564-82.837,58.967a140,140,0,0,1-18.145,1.173q-6.126,0-12.065-.514c-51.381-4.416-91.264-36.686-91.264-75.841,0-13.54,4.773-26.251,13.137-37.276l0,0c-15.911-60.517,35.831-112.112,45.364-114.834s.425,3.553-3.725,30.942c-2.664,17.587,1.518,38.939,4.847,51.968a134.143,134.143,0,0,1,43.708-7.152"
                  transform="translate(-7804.5 -1117.794)" fill="none" stroke="#000" stroke-miterlimit="10"
                  stroke-width="2.879"/>
            <g id="Groupe_4" data-name="Groupe 4" transform="translate(164.846 87.793)">
                <ellipse id="Ellipse_2" data-name="Ellipse 2" cx="39.135" cy="41.58" rx="39.135" ry="41.58"
                         fill="#fff"/>
                <path id="Tracé_18" data-name="Tracé 18"
                      d="M7936.686,1261.854c21.616,0,39.137-18.615,39.137-41.58s-17.521-41.58-39.137-41.58c-13.506,0-25.417,7.271-32.451,18.331"
                      transform="translate(-7897.554 -1178.694)" fill="none" stroke="#000" stroke-miterlimit="10"
                      stroke-width="4.11"/>
            </g>
            <g id="Groupe_5" data-name="Groupe 5" transform="translate(68.023 80.49)">
                <ellipse id="Ellipse_3" data-name="Ellipse 3" cx="40.653" cy="45.232" rx="40.653" ry="45.232"
                         transform="translate(0.001)" fill="#fff"/>
                <path id="Tracé_19" data-name="Tracé 19"
                      d="M8014.759,1264.091c-22.45,0-40.654-20.251-40.654-45.231s18.2-45.232,40.654-45.232c14.033,0,26.406,7.91,33.711,19.942"
                      transform="translate(-7974.105 -1173.627)" fill="none" stroke="#000" stroke-miterlimit="10"
                      stroke-width="4.37"/>
            </g>
            <g id="Groupe_6" data-name="Groupe 6" transform="translate(169.278 107.048)">
                <circle id="Ellipse_4" data-name="Ellipse 4" cx="19.919" cy="19.919" r="19.919" fill="#bad850"/>
                <circle id="Ellipse_5" data-name="Ellipse 5" cx="19.919" cy="19.919" r="19.919" fill="none"
                        stroke="#000102" stroke-miterlimit="10" stroke-width="2.854"/>
                <line id="Ligne_1" data-name="Ligne 1" x1="4.531" y2="24.264" transform="translate(17.238 6.434)"
                      fill="none" stroke="#000102" stroke-miterlimit="10" stroke-width="2.854"/>
                <circle id="Ellipse_6" data-name="Ellipse 6" cx="6.64" cy="6.64" r="6.64"
                        transform="translate(21.579 6.639)" fill="#fff"/>
            </g>
            <g id="Groupe_7" data-name="Groupe 7" transform="translate(105.371 107.048)">
                <circle id="Ellipse_7" data-name="Ellipse 7" cx="19.919" cy="19.919" r="19.919" fill="#bad850"/>
                <circle id="Ellipse_8" data-name="Ellipse 8" cx="19.919" cy="19.919" r="19.919" fill="none"
                        stroke="#000102" stroke-miterlimit="10" stroke-width="2.854"/>
                <line id="Ligne_2" data-name="Ligne 2" x2="4.531" y2="24.264" transform="translate(18.069 6.434)"
                      fill="none" stroke="#000102" stroke-miterlimit="10" stroke-width="2.854"/>
                <circle id="Ellipse_9" data-name="Ellipse 9" cx="6.64" cy="6.64" r="6.64"
                        transform="translate(21.579 6.639)" fill="#fff"/>
            </g>
            <path id="Tracé_20" data-name="Tracé 20" d="M7962.074,1234.941s.833,23.22,3.323,36.517"
                  transform="translate(-7805.662 -1066.062)" fill="none" stroke="#000" stroke-miterlimit="10"
                  stroke-width="1.727"/>
            <path id="Tracé_21" data-name="Tracé 21" d="M7978.518,1265.691s-10.758-7.273-16.673-5.8-6.8,5.8-6.8,5.8"
                  transform="translate(-7808.647 -1055.131)" fill="none" stroke="#000" stroke-miterlimit="10"
                  stroke-width="2.303"/>
            <g id="Groupe_8" data-name="Groupe 8" transform="translate(135.317 157.058)">
                <path id="Tracé_22" data-name="Tracé 22"
                      d="M7953.492,1233.168c7.259-12.808,20.073,3.906,20.819,6.122.746-2.216,7.372-20.906,14.631-8.1,7.65,13.5-8.237,15.644-14.562,21.764v.133c-.021-.023-.048-.044-.069-.066l-.071.066v-.133C7967.921,1246.833,7945.842,1246.666,7953.492,1233.168Z"
                      transform="translate(-7951.901 -1226.741)" fill="#ffbaaa"/>
                <path id="Tracé_23" data-name="Tracé 23"
                      d="M7972.126,1251.4c-8.024-4.709-25.58-5.977-18.634-18.23,7.259-12.808,20.073,3.906,20.819,6.122.746-2.216,7.372-20.906,14.631-8.1,6.441,11.36-3.795,14.679-10.965,19.095a21.036,21.036,0,0,0-3.6,2.669v.133c-.021-.023-.048-.044-.069-.066l-.071.066"
                      transform="translate(-7951.898 -1226.741)" fill="none" stroke="#000" stroke-miterlimit="10"
                      stroke-width="2.303"/>
            </g>
            <path id="Tracé_24" data-name="Tracé 24"
                  d="M7850.673,1247.607s68.964,15.768,96.274,26.972,20.785,1.844,33.2-3.319"
                  transform="translate(-7659.817 -1060.469)" fill="none" stroke="#000" stroke-miterlimit="10"
                  stroke-width="1.151"/>
            <path id="Tracé_25" data-name="Tracé 25"
                  d="M7870.605,1252.229s29.322,15.865,42.6,30.536,42.124,17.162,68.369,22.971"
                  transform="translate(-7689.98 -1058.427)" fill="none" stroke="#000" stroke-miterlimit="10"
                  stroke-width="1.151"/>
            <path id="Tracé_26" data-name="Tracé 26" d="M7966.726,1337.781s-7.158-22.616-62.491-78.991"
                  transform="translate(-7723.609 -1055.53)" fill="none" stroke="#000" stroke-miterlimit="10"
                  stroke-width="1.151"/>
            <path id="Tracé_27" data-name="Tracé 27"
                  d="M8109.854,1258.042s-67.739-20.386-97.024-24.15-18.978-8.673-27.213-19.3"
                  transform="translate(-7984.06 -1075.048)" fill="none" stroke="#000" stroke-miterlimit="10"
                  stroke-width="1.151"/>
            <path id="Tracé_28" data-name="Tracé 28"
                  d="M8109.84,1258.483s-32.931-5.2-52.391-1.607-43.891-11.945-68.272-23.266"
                  transform="translate(-7989.177 -1066.65)" fill="none" stroke="#000" stroke-miterlimit="10"
                  stroke-width="1.151"/>
            <path id="Tracé_29" data-name="Tracé 29" d="M7993.162,1280.891s19.419-13.625,97.616-24.814"
                  transform="translate(-7975.862 -1056.729)" fill="none" stroke="#000" stroke-miterlimit="10"
                  stroke-width="1.151"/>
        </g>
    </g>
</svg>
