<svg xmlns="http://www.w3.org/2000/svg" width="134" height="134" viewBox="0 0 134 134">
    <g id="Groupe_19" data-name="Groupe 19" transform="translate(-1290 -870)">
        <g id="Groupe_14" data-name="Groupe 14" transform="translate(1312 888.368)">
            <path id="Tracé_35" data-name="Tracé 35"
                  d="M27.4,58.584l3.771,25.388H58.833l1.024-6.9-2.62,1.249a1,1,0,1,1-.86-1.805l3.835-1.829.71-4.781-8.176,4a1,1,0,1,1-.879-1.8l9.411-4.6L62,62.639,46.695,69.687a1,1,0,1,1-.837-1.816l16.494-7.6.251-1.692Z"
                  fill="#707070"/>
            <rect id="Rectangle_2" data-name="Rectangle 2" width="41.94" height="2.882"
                  transform="translate(24.033 53.702)" fill="#707070"/>
            <path id="Tracé_36" data-name="Tracé 36"
                  d="M36.507,51.7h8.676c-.052-.609-.12-1.452-.2-2.478C42.6,48.035,33,42.853,27.079,33.855a1,1,0,0,1,1.671-1.1c4.928,7.495,12.769,12.317,16.068,14.117-.081-1.2-.163-2.54-.241-3.986-.426-1.464-4.734-15.615-14.232-23.3A1,1,0,0,1,31.6,18.036c6.36,5.143,10.434,12.806,12.7,18.185-.239-8.264-.089-17.723,1.365-23.644a1,1,0,1,1,1.942.477c-1.363,5.549-1.522,14.569-1.307,22.6a35.089,35.089,0,0,1,13.422-14.28A1,1,0,0,1,60.733,23.1,33.327,33.327,0,0,0,46.469,40.361c.2,4.509.479,8.325.65,10.447,2.734-2.2,9.192-7.946,16.887-18.627a1,1,0,1,1,1.623,1.169c-7.2,10-13.262,15.7-16.431,18.352h6.971c8.6-8.282,19.785-21.167,18.236-24.455-.421-.894-2.334-.811-3.437-.681-3.014.354-5.934.457-7.2-1.142a2.908,2.908,0,0,1-.283-2.958,13.438,13.438,0,0,1,2.2-3.6,11.985,11.985,0,0,0,1.865-2.976c.089-.239.213-.677.044-.917a1.464,1.464,0,0,0-1.183-.355,5.616,5.616,0,0,0-2.766.87,16.159,16.159,0,0,0-2.871,2.356c-.478.458-.959.916-1.466,1.35-1,.853-2.315,1.81-3.618,1.611a2.267,2.267,0,0,1-1.607-1.1,14.677,14.677,0,0,1-1.392-5.05c-.917-5.471-1.955-9.285-6.883-8.537-4.325.655-5.367,4.187-6.2,7.024-.532,1.8-.953,3.229-2.19,3.662a2.879,2.879,0,0,1-2.5-.594c-3.2-2.241-8.4-3.607-9.584-2.519-.508.465-.189,1.822.853,3.631,1.167,2.027,1.706,3.375,1,4.266-.729.92-1.963.553-3.672.043-3.236-.966-6.052-1.555-7.7,1.046C13.068,26.982,26.933,42.638,36.507,51.7Z"
                  fill="#707070"/>
        </g>
        <rect id="Rectangle_15" data-name="Rectangle 15" width="134" height="134" transform="translate(1290 870)"
              fill="none"/>
    </g>
</svg>
