<svg xmlns="http://www.w3.org/2000/svg" width="53.292" height="53" viewBox="0 0 53.292 53">
    <g id="Groupe_16" data-name="Groupe 16" transform="translate(-387.194 -428.341)">
        <path id="Tracé_40" data-name="Tracé 40"
              d="M398.092,476.81l7.132-2.323,3.046,6.854,5.571-5.023,1.013.914,4.558,4.109,3.046-6.854,7.132,2.323-.006-7.5,7.46-.779q-1.528-3.425-3.056-6.85l6.5-3.746-5.578-5.015.437-.6,3.977-5.466-7.135-2.313q.782-3.668,1.565-7.336l-7.459.79-1.554-7.338-6.493,3.755-3.337-4.6-1.068-1.471-4.4,6.071-6.493-3.755L401.388,438l-7.459-.79,1.565,7.336-7.135,2.313,3.977,5.466.436.6-5.578,5.015,6.5,3.746-3.056,6.85,7.46.779Q398.094,473.059,398.092,476.81Z"
              fill="#dd0a18"/>
        <g id="Groupe_15" data-name="Groupe 15" transform="translate(397.472 451.633)">
            <path id="Tracé_41" data-name="Tracé 41"
                  d="M413.072,496.213l-.1-8.654,2.735-.031s2.588,5.12,2.8,5.658h.039c-.132-1.068-.244-5.686-.244-5.686l2.119-.024.1,8.654-2.44.027-3.046-5.963c.072,1.087.157,6,.157,6Z"
                  transform="translate(-412.975 -487.193)" fill="#fff"/>
            <path id="Tracé_42" data-name="Tracé 42"
                  d="M441.171,492.435l-3.108.034.018,1.593,3.48-.039.021,1.9-5.8.065-.1-8.654,5.624-.063.021,1.9-3.3.037.016,1.387,3.107-.035Z"
                  transform="translate(-426.629 -487.07)" fill="#fff"/>
            <path id="Tracé_43" data-name="Tracé 43"
                  d="M454.033,495.687l-2.087-8.631,2.491-.028,1.033,6.242c.063-.454,1-6.265,1-6.265l2.478-.028s.928,5.657.994,6.179l.906-6.2,2.35-.026-2.034,8.678-2.53.029-.616-3.383c-.146-.795-.415-2.589-.415-2.589s-.317,2.255-.382,2.6l-.617,3.4Z"
                  transform="translate(-436.41 -486.864)" fill="#fff"/>
            <path id="Tracé_44" data-name="Tracé 44"
                  d="M489.812,495.575a1.329,1.329,0,0,1-.03-2.658,1.189,1.189,0,0,1,1.338,1.321,1.163,1.163,0,0,1-1.295,1.337Zm-.883-3.123-.4-5.659,2.388-.027-.27,5.666Z"
                  transform="translate(-458.383 -486.767)" fill="#fff"/>
        </g>
    </g>
</svg>
