<svg xmlns="http://www.w3.org/2000/svg" width="134" height="134" viewBox="0 0 134 134">
  <g id="Groupe_18" data-name="Groupe 18" transform="translate(-879 -870)">
    <g id="Groupe_13" data-name="Groupe 13" transform="translate(896.85 881.244)">
      <g id="Groupe_11" data-name="Groupe 11">
        <path id="Tracé_31" data-name="Tracé 31" d="M67,75.092v.02a4.685,4.685,0,0,1-4.679,4.668H51.016v5.488l12.5,3.546a2.533,2.533,0,0,1,1.829,2.426v5.749a1.011,1.011,0,1,1-2.021,0V91.24a.488.488,0,0,0-.354-.475L51.016,87.359v9.63a1.011,1.011,0,1,1-2.021,0v-9.63L37.04,90.765a.5.5,0,0,0-.364.475v5.749a1.011,1.011,0,1,1-2.021,0V91.24a2.542,2.542,0,0,1,1.839-2.426l12.5-3.557V79.78H37.687A4.687,4.687,0,0,1,33,75.112v-.02a4.688,4.688,0,0,1,4.689-4.669H62.323A4.686,4.686,0,0,1,67,75.092Z" fill="#707070"/>
      </g>
      <path id="Tracé_32" data-name="Tracé 32" d="M92.6,39.127H87.619L63.172,12.005l14.3-8.115a1.011,1.011,0,1,0-1-1.758L11.261,39.127H7.4A3.18,3.18,0,0,0,4.229,42.31V60.783A3.18,3.18,0,0,0,7.4,63.966h3.314V95.393a1.591,1.591,0,0,0,1.587,1.6h4.032a1.591,1.591,0,0,0,1.586-1.6V75.647a16.669,16.669,0,0,1,1.233-6.265l2.213-5.416H78.633l2.213,5.416a16.476,16.476,0,0,1,1.233,6.265V95.393a1.591,1.591,0,0,0,1.586,1.6h4.043a1.6,1.6,0,0,0,1.586-1.6V63.966h3.3a3.187,3.187,0,0,0,3.173-3.183V42.31A3.187,3.187,0,0,0,92.6,39.127ZM87.829,58.6H83.837V55.467a1.01,1.01,0,0,0-2.021,0V58.6H75.632V55.467a1.011,1.011,0,0,0-2.021,0V58.6H67.426V55.467a1.011,1.011,0,0,0-2.021,0V58.6H59.221V55.467a1.011,1.011,0,0,0-2.021,0V58.6H51.005V55.467a1.011,1.011,0,0,0-2.021,0V58.6H42.8V55.467a1.011,1.011,0,0,0-2.021,0V58.6H34.6V55.467a1.011,1.011,0,0,0-2.021,0V58.6h-6.2V55.467a1.011,1.011,0,0,0-2.021,0V58.6H18.174V55.467a1.011,1.011,0,0,0-2.021,0V58.6H12.171V49.657H35.1V39.127H15.352l46.021-26.1,23.52,26.1H64.9v10.53H87.829Z" fill="#707070"/>
      <g id="Groupe_12" data-name="Groupe 12">
        <path id="Tracé_33" data-name="Tracé 33" d="M48.988,49.659V30.048H38.13a1.011,1.011,0,0,0-1.01,1.011v18.6H48.989Zm-3-3.739H40.117a1.011,1.011,0,1,1,0-2.022h5.875a1.011,1.011,0,0,1,0,2.022Zm0-5.054H40.117a1.011,1.011,0,1,1,0-2.021h5.875a1.011,1.011,0,0,1,0,2.021Zm0-5.054H40.117a1.011,1.011,0,1,1,0-2.021h5.875a1.011,1.011,0,0,1,0,2.021Z" fill="#707070"/>
        <path id="Tracé_34" data-name="Tracé 34" d="M61.867,30.048H51.009V49.663h11.87v-18.6A1.011,1.011,0,0,0,61.867,30.048ZM59.88,45.92H54.006a1.011,1.011,0,0,1,0-2.022H59.88a1.011,1.011,0,0,1,0,2.022Zm0-5.054H54.006a1.011,1.011,0,0,1,0-2.021H59.88a1.011,1.011,0,0,1,0,2.021Zm0-5.054H54.006a1.011,1.011,0,0,1,0-2.021H59.88a1.011,1.011,0,0,1,0,2.021Z" fill="#707070"/>
      </g>
    </g>
    <rect id="Rectangle_14" data-name="Rectangle 14" width="134" height="134" transform="translate(879 870)" fill="none"/>
  </g>
</svg>
